<svg xmlns="http://www.w3.org/2000/svg" xmlns:xlink="http://www.w3.org/1999/xlink" width="300" zoomAndPan="magnify" viewBox="0 0 224.87999 225" height="300" preserveAspectRatio="xMidYMid meet" version="1.0"><defs><clipPath id="ad7aa1718f"><path d="M 47 5 L 177 5 L 177 220 L 47 220 Z M 47 5 " clip-rule="nonzero"/></clipPath><clipPath id="2ff6a1cc28"><path d="M 218.445312 179.441406 L 47.875 219.980469 L 6.382812 45.414062 L 176.953125 4.871094 Z M 218.445312 179.441406 " clip-rule="nonzero"/></clipPath><clipPath id="d46e9f8b30"><path d="M 174.324219 189.925781 L 47.875 219.980469 L 50.535156 35.066406 L 176.984375 5.011719 Z M 174.324219 189.925781 " clip-rule="nonzero"/></clipPath><clipPath id="d44b01e2b4"><path d="M 75 36.585938 L 156 36.585938 L 156 188.753906 L 75 188.753906 Z M 75 36.585938 " clip-rule="nonzero"/></clipPath><clipPath id="7bf3c1c5d2"><path d="M 148 139 L 159.921875 139 L 159.921875 176 L 148 176 Z M 148 139 " clip-rule="nonzero"/></clipPath></defs><g clip-path="url(#ad7aa1718f)"><g clip-path="url(#2ff6a1cc28)"><g clip-path="url(#d46e9f8b30)"><path fill="#ffffff" d="M 218.445312 179.441406 L 47.875 219.980469 L 6.382812 45.414062 L 176.953125 4.871094 Z M 218.445312 179.441406 " fill-opacity="1" fill-rule="nonzero"/></g></g></g><g clip-path="url(#d44b01e2b4)"><path fill="#5f29cb" d="M 155.320312 68.972656 L 155.320312 135.679688 C 155.320312 135.679688 147.457031 134.203125 145.835938 143.019531 C 145.835938 143.019531 140.882812 132.34375 133.542969 125.625 C 126.207031 118.90625 112.339844 106.472656 99.285156 100.753906 L 108.289062 111.902344 C 108.289062 111.902344 99.664062 122.386719 100.667969 133.582031 C 101.667969 144.734375 119.582031 154.550781 127.300781 159.125 C 135.019531 163.699219 153.652344 175.039062 155.320312 179.613281 C 155.320312 179.613281 130.972656 172.65625 112.007812 175.707031 C 93.042969 178.753906 81.226562 188.378906 81.226562 188.378906 C 81.226562 188.378906 84.417969 165.554688 93.234375 156.40625 C 93.234375 156.40625 78.605469 129.152344 96.378906 99.992188 C 96.378906 99.992188 78.75 88.175781 79.988281 72.59375 C 79.988281 72.59375 88.230469 88.078125 102.429688 93.796875 C 102.429688 93.796875 72.21875 71.6875 76.128906 36.617188 L 95.089844 57.585938 C 95.089844 57.585938 111.484375 60.96875 116.390625 70.59375 C 121.296875 80.21875 132.640625 93.796875 132.640625 93.796875 L 123.347656 73.5 C 123.347656 73.546875 136.878906 66.304688 155.320312 68.972656 Z M 155.320312 68.972656 " fill-opacity="1" fill-rule="nonzero"/></g><path fill="#5f29cb" d="M 141.453125 142.113281 L 137.878906 136.632812 C 137.878906 136.632812 129.78125 141.730469 123.394531 135.25 C 117.011719 128.769531 121.109375 119.527344 121.109375 119.527344 L 116.390625 116.050781 C 116.390625 116.050781 111.292969 124.910156 115.867188 134.824219 C 120.058594 143.734375 130.445312 146.164062 141.453125 142.113281 Z M 141.453125 142.113281 " fill-opacity="1" fill-rule="nonzero"/><g clip-path="url(#7bf3c1c5d2)"><path fill="#5f29cb" d="M 154.652344 139.253906 C 154.507812 139.207031 154.367188 139.207031 154.222656 139.207031 C 150.699219 138.871094 148.933594 142.734375 148.503906 145.640625 C 146.980469 155.644531 149.03125 166.746094 154.605469 175.179688 C 155.558594 173.65625 156.226562 172.082031 156.796875 170.417969 C 157.273438 168.988281 158.273438 166.746094 158.226562 165.222656 C 159.179688 161.746094 159.796875 158.171875 159.988281 154.550781 C 160.226562 150.59375 160.273438 145.589844 158.226562 142.066406 C 157.464844 140.730469 156.175781 139.585938 154.652344 139.253906 Z M 154.652344 139.253906 " fill-opacity="1" fill-rule="nonzero"/></g></svg>