<svg xmlns="http://www.w3.org/2000/svg" xmlns:xlink="http://www.w3.org/1999/xlink" width="300" zoomAndPan="magnify" viewBox="0 0 224.87999 225" height="300" preserveAspectRatio="xMidYMid meet" version="1.0"><defs><g/><clipPath id="88297ecb16"><path d="M 7.585938 7.644531 L 217.292969 7.644531 L 217.292969 217.355469 L 7.585938 217.355469 Z M 7.585938 7.644531 " clip-rule="nonzero"/></clipPath><clipPath id="42785240be"><path d="M 40.351562 7.644531 L 184.527344 7.644531 C 202.625 7.644531 217.292969 22.316406 217.292969 40.414062 L 217.292969 184.585938 C 217.292969 202.683594 202.625 217.355469 184.527344 217.355469 L 40.351562 217.355469 C 22.253906 217.355469 7.585938 202.683594 7.585938 184.585938 L 7.585938 40.414062 C 7.585938 22.316406 22.253906 7.644531 40.351562 7.644531 Z M 40.351562 7.644531 " clip-rule="nonzero"/></clipPath><linearGradient x1="0.00000133451" gradientTransform="matrix(0.819179, 0, 0, 0.819179, 7.585074, 7.645087)" y1="0.00000133451" x2="256.000002" gradientUnits="userSpaceOnUse" y2="256.000002" id="a1b7ddcd1f"><stop stop-opacity="1" stop-color="rgb(17.298889%, 17.999268%, 91.799927%)" offset="0"/><stop stop-opacity="1" stop-color="rgb(17.550659%, 17.976379%, 91.650391%)" offset="0.00390625"/><stop stop-opacity="1" stop-color="rgb(17.803955%, 17.953491%, 91.500854%)" offset="0.0078125"/><stop stop-opacity="1" stop-color="rgb(18.057251%, 17.930603%, 91.351318%)" offset="0.0117188"/><stop stop-opacity="1" stop-color="rgb(18.310547%, 17.909241%, 91.203308%)" offset="0.015625"/><stop stop-opacity="1" stop-color="rgb(18.562317%, 17.886353%, 91.053772%)" offset="0.0195313"/><stop stop-opacity="1" stop-color="rgb(18.815613%, 17.863464%, 90.905762%)" offset="0.0234375"/><stop stop-opacity="1" stop-color="rgb(19.067383%, 17.840576%, 90.756226%)" offset="0.0273438"/><stop stop-opacity="1" stop-color="rgb(19.320679%, 17.817688%, 90.608215%)" offset="0.03125"/><stop stop-opacity="1" stop-color="rgb(19.573975%, 17.7948%, 90.458679%)" offset="0.0351563"/><stop stop-opacity="1" stop-color="rgb(19.827271%, 17.771912%, 90.310669%)" offset="0.0390625"/><stop stop-opacity="1" stop-color="rgb(20.079041%, 17.749023%, 90.161133%)" offset="0.0429688"/><stop stop-opacity="1" stop-color="rgb(20.332336%, 17.727661%, 90.013123%)" offset="0.046875"/><stop stop-opacity="1" stop-color="rgb(20.584106%, 17.704773%, 89.863586%)" offset="0.0507813"/><stop stop-opacity="1" stop-color="rgb(20.837402%, 17.681885%, 89.715576%)" offset="0.0546875"/><stop stop-opacity="1" stop-color="rgb(21.089172%, 17.658997%, 89.56604%)" offset="0.0585938"/><stop stop-opacity="1" stop-color="rgb(21.342468%, 17.636108%, 89.41803%)" offset="0.0625"/><stop stop-opacity="1" stop-color="rgb(21.595764%, 17.61322%, 89.268494%)" offset="0.0664063"/><stop stop-opacity="1" stop-color="rgb(21.84906%, 17.591858%, 89.120483%)" offset="0.0703125"/><stop stop-opacity="1" stop-color="rgb(22.10083%, 17.56897%, 88.970947%)" offset="0.0742188"/><stop stop-opacity="1" stop-color="rgb(22.354126%, 17.546082%, 88.822937%)" offset="0.078125"/><stop stop-opacity="1" stop-color="rgb(22.605896%, 17.523193%, 88.673401%)" offset="0.0820313"/><stop stop-opacity="1" stop-color="rgb(22.859192%, 17.500305%, 88.525391%)" offset="0.0859375"/><stop stop-opacity="1" stop-color="rgb(23.110962%, 17.477417%, 88.375854%)" offset="0.0898438"/><stop stop-opacity="1" stop-color="rgb(23.364258%, 17.456055%, 88.227844%)" offset="0.09375"/><stop stop-opacity="1" stop-color="rgb(23.617554%, 17.433167%, 88.078308%)" offset="0.0976563"/><stop stop-opacity="1" stop-color="rgb(23.87085%, 17.410278%, 87.930298%)" offset="0.101562"/><stop stop-opacity="1" stop-color="rgb(24.12262%, 17.38739%, 87.780762%)" offset="0.105469"/><stop stop-opacity="1" stop-color="rgb(24.375916%, 17.364502%, 87.632751%)" offset="0.109375"/><stop stop-opacity="1" stop-color="rgb(24.627686%, 17.341614%, 87.483215%)" offset="0.113281"/><stop stop-opacity="1" stop-color="rgb(24.880981%, 17.320251%, 87.333679%)" offset="0.117188"/><stop stop-opacity="1" stop-color="rgb(25.132751%, 17.297363%, 87.184143%)" offset="0.121094"/><stop stop-opacity="1" stop-color="rgb(25.386047%, 17.274475%, 87.036133%)" offset="0.125"/><stop stop-opacity="1" stop-color="rgb(25.639343%, 17.251587%, 86.886597%)" offset="0.128906"/><stop stop-opacity="1" stop-color="rgb(25.892639%, 17.228699%, 86.738586%)" offset="0.132812"/><stop stop-opacity="1" stop-color="rgb(26.144409%, 17.205811%, 86.58905%)" offset="0.136719"/><stop stop-opacity="1" stop-color="rgb(26.397705%, 17.182922%, 86.44104%)" offset="0.140625"/><stop stop-opacity="1" stop-color="rgb(26.649475%, 17.160034%, 86.291504%)" offset="0.144531"/><stop stop-opacity="1" stop-color="rgb(26.902771%, 17.138672%, 86.143494%)" offset="0.148438"/><stop stop-opacity="1" stop-color="rgb(27.156067%, 17.115784%, 85.993958%)" offset="0.152344"/><stop stop-opacity="1" stop-color="rgb(27.409363%, 17.092896%, 85.845947%)" offset="0.15625"/><stop stop-opacity="1" stop-color="rgb(27.661133%, 17.070007%, 85.696411%)" offset="0.160156"/><stop stop-opacity="1" stop-color="rgb(27.914429%, 17.047119%, 85.548401%)" offset="0.164063"/><stop stop-opacity="1" stop-color="rgb(28.166199%, 17.024231%, 85.398865%)" offset="0.167969"/><stop stop-opacity="1" stop-color="rgb(28.419495%, 17.002869%, 85.250854%)" offset="0.171875"/><stop stop-opacity="1" stop-color="rgb(28.671265%, 16.97998%, 85.101318%)" offset="0.175781"/><stop stop-opacity="1" stop-color="rgb(28.924561%, 16.957092%, 84.953308%)" offset="0.179688"/><stop stop-opacity="1" stop-color="rgb(29.177856%, 16.934204%, 84.803772%)" offset="0.183594"/><stop stop-opacity="1" stop-color="rgb(29.431152%, 16.911316%, 84.655762%)" offset="0.1875"/><stop stop-opacity="1" stop-color="rgb(29.682922%, 16.888428%, 84.506226%)" offset="0.191406"/><stop stop-opacity="1" stop-color="rgb(29.936218%, 16.867065%, 84.358215%)" offset="0.195313"/><stop stop-opacity="1" stop-color="rgb(30.187988%, 16.844177%, 84.208679%)" offset="0.199219"/><stop stop-opacity="1" stop-color="rgb(30.441284%, 16.821289%, 84.060669%)" offset="0.203125"/><stop stop-opacity="1" stop-color="rgb(30.693054%, 16.798401%, 83.911133%)" offset="0.207031"/><stop stop-opacity="1" stop-color="rgb(30.94635%, 16.775513%, 83.763123%)" offset="0.210938"/><stop stop-opacity="1" stop-color="rgb(31.199646%, 16.752625%, 83.613586%)" offset="0.214844"/><stop stop-opacity="1" stop-color="rgb(31.452942%, 16.729736%, 83.465576%)" offset="0.21875"/><stop stop-opacity="1" stop-color="rgb(31.704712%, 16.706848%, 83.31604%)" offset="0.222656"/><stop stop-opacity="1" stop-color="rgb(31.958008%, 16.685486%, 83.166504%)" offset="0.226563"/><stop stop-opacity="1" stop-color="rgb(32.209778%, 16.662598%, 83.016968%)" offset="0.230469"/><stop stop-opacity="1" stop-color="rgb(32.463074%, 16.639709%, 82.868958%)" offset="0.234375"/><stop stop-opacity="1" stop-color="rgb(32.714844%, 16.616821%, 82.719421%)" offset="0.238281"/><stop stop-opacity="1" stop-color="rgb(32.96814%, 16.593933%, 82.571411%)" offset="0.242188"/><stop stop-opacity="1" stop-color="rgb(33.221436%, 16.571045%, 82.421875%)" offset="0.246094"/><stop stop-opacity="1" stop-color="rgb(33.474731%, 16.549683%, 82.273865%)" offset="0.25"/><stop stop-opacity="1" stop-color="rgb(33.726501%, 16.526794%, 82.124329%)" offset="0.253906"/><stop stop-opacity="1" stop-color="rgb(33.979797%, 16.503906%, 81.976318%)" offset="0.257812"/><stop stop-opacity="1" stop-color="rgb(34.231567%, 16.481018%, 81.826782%)" offset="0.261719"/><stop stop-opacity="1" stop-color="rgb(34.484863%, 16.45813%, 81.678772%)" offset="0.265625"/><stop stop-opacity="1" stop-color="rgb(34.736633%, 16.435242%, 81.529236%)" offset="0.269531"/><stop stop-opacity="1" stop-color="rgb(34.989929%, 16.413879%, 81.381226%)" offset="0.273438"/><stop stop-opacity="1" stop-color="rgb(35.243225%, 16.390991%, 81.231689%)" offset="0.277344"/><stop stop-opacity="1" stop-color="rgb(35.496521%, 16.368103%, 81.083679%)" offset="0.28125"/><stop stop-opacity="1" stop-color="rgb(35.748291%, 16.345215%, 80.934143%)" offset="0.285156"/><stop stop-opacity="1" stop-color="rgb(36.001587%, 16.322327%, 80.786133%)" offset="0.289062"/><stop stop-opacity="1" stop-color="rgb(36.253357%, 16.299438%, 80.636597%)" offset="0.292969"/><stop stop-opacity="1" stop-color="rgb(36.506653%, 16.278076%, 80.488586%)" offset="0.296875"/><stop stop-opacity="1" stop-color="rgb(36.759949%, 16.255188%, 80.33905%)" offset="0.300781"/><stop stop-opacity="1" stop-color="rgb(37.013245%, 16.2323%, 80.19104%)" offset="0.304688"/><stop stop-opacity="1" stop-color="rgb(37.265015%, 16.209412%, 80.041504%)" offset="0.308594"/><stop stop-opacity="1" stop-color="rgb(37.518311%, 16.186523%, 79.893494%)" offset="0.3125"/><stop stop-opacity="1" stop-color="rgb(37.770081%, 16.163635%, 79.743958%)" offset="0.316406"/><stop stop-opacity="1" stop-color="rgb(38.023376%, 16.140747%, 79.595947%)" offset="0.320312"/><stop stop-opacity="1" stop-color="rgb(38.275146%, 16.117859%, 79.446411%)" offset="0.324219"/><stop stop-opacity="1" stop-color="rgb(38.528442%, 16.096497%, 79.298401%)" offset="0.328125"/><stop stop-opacity="1" stop-color="rgb(38.781738%, 16.073608%, 79.148865%)" offset="0.332031"/><stop stop-opacity="1" stop-color="rgb(39.035034%, 16.05072%, 78.999329%)" offset="0.335938"/><stop stop-opacity="1" stop-color="rgb(39.286804%, 16.027832%, 78.849792%)" offset="0.339844"/><stop stop-opacity="1" stop-color="rgb(39.5401%, 16.004944%, 78.701782%)" offset="0.34375"/><stop stop-opacity="1" stop-color="rgb(39.79187%, 15.982056%, 78.552246%)" offset="0.347656"/><stop stop-opacity="1" stop-color="rgb(40.045166%, 15.960693%, 78.404236%)" offset="0.351562"/><stop stop-opacity="1" stop-color="rgb(40.296936%, 15.937805%, 78.2547%)" offset="0.355469"/><stop stop-opacity="1" stop-color="rgb(40.550232%, 15.914917%, 78.106689%)" offset="0.359375"/><stop stop-opacity="1" stop-color="rgb(40.803528%, 15.892029%, 77.957153%)" offset="0.363281"/><stop stop-opacity="1" stop-color="rgb(41.056824%, 15.869141%, 77.809143%)" offset="0.367188"/><stop stop-opacity="1" stop-color="rgb(41.308594%, 15.846252%, 77.659607%)" offset="0.371094"/><stop stop-opacity="1" stop-color="rgb(41.56189%, 15.82489%, 77.511597%)" offset="0.375"/><stop stop-opacity="1" stop-color="rgb(41.81366%, 15.802002%, 77.362061%)" offset="0.378906"/><stop stop-opacity="1" stop-color="rgb(42.066956%, 15.779114%, 77.21405%)" offset="0.382812"/><stop stop-opacity="1" stop-color="rgb(42.318726%, 15.756226%, 77.064514%)" offset="0.386719"/><stop stop-opacity="1" stop-color="rgb(42.572021%, 15.733337%, 76.916504%)" offset="0.390625"/><stop stop-opacity="1" stop-color="rgb(42.825317%, 15.710449%, 76.766968%)" offset="0.394531"/><stop stop-opacity="1" stop-color="rgb(43.078613%, 15.687561%, 76.618958%)" offset="0.398438"/><stop stop-opacity="1" stop-color="rgb(43.330383%, 15.664673%, 76.469421%)" offset="0.402344"/><stop stop-opacity="1" stop-color="rgb(43.583679%, 15.643311%, 76.321411%)" offset="0.40625"/><stop stop-opacity="1" stop-color="rgb(43.835449%, 15.620422%, 76.171875%)" offset="0.410156"/><stop stop-opacity="1" stop-color="rgb(44.088745%, 15.597534%, 76.023865%)" offset="0.414062"/><stop stop-opacity="1" stop-color="rgb(44.340515%, 15.574646%, 75.874329%)" offset="0.417969"/><stop stop-opacity="1" stop-color="rgb(44.593811%, 15.551758%, 75.726318%)" offset="0.421875"/><stop stop-opacity="1" stop-color="rgb(44.847107%, 15.52887%, 75.576782%)" offset="0.425781"/><stop stop-opacity="1" stop-color="rgb(45.100403%, 15.507507%, 75.428772%)" offset="0.429688"/><stop stop-opacity="1" stop-color="rgb(45.352173%, 15.484619%, 75.279236%)" offset="0.433594"/><stop stop-opacity="1" stop-color="rgb(45.605469%, 15.461731%, 75.131226%)" offset="0.4375"/><stop stop-opacity="1" stop-color="rgb(45.857239%, 15.438843%, 74.981689%)" offset="0.441406"/><stop stop-opacity="1" stop-color="rgb(46.110535%, 15.415955%, 74.832153%)" offset="0.445312"/><stop stop-opacity="1" stop-color="rgb(46.363831%, 15.393066%, 74.682617%)" offset="0.449219"/><stop stop-opacity="1" stop-color="rgb(46.617126%, 15.371704%, 74.534607%)" offset="0.453125"/><stop stop-opacity="1" stop-color="rgb(46.868896%, 15.348816%, 74.385071%)" offset="0.457031"/><stop stop-opacity="1" stop-color="rgb(47.122192%, 15.325928%, 74.237061%)" offset="0.460938"/><stop stop-opacity="1" stop-color="rgb(47.373962%, 15.30304%, 74.087524%)" offset="0.464844"/><stop stop-opacity="1" stop-color="rgb(47.627258%, 15.280151%, 73.939514%)" offset="0.46875"/><stop stop-opacity="1" stop-color="rgb(47.879028%, 15.257263%, 73.789978%)" offset="0.472656"/><stop stop-opacity="1" stop-color="rgb(48.132324%, 15.235901%, 73.641968%)" offset="0.476562"/><stop stop-opacity="1" stop-color="rgb(48.38562%, 15.213013%, 73.492432%)" offset="0.480469"/><stop stop-opacity="1" stop-color="rgb(48.638916%, 15.190125%, 73.344421%)" offset="0.484375"/><stop stop-opacity="1" stop-color="rgb(48.890686%, 15.167236%, 73.194885%)" offset="0.488281"/><stop stop-opacity="1" stop-color="rgb(49.143982%, 15.144348%, 73.046875%)" offset="0.492188"/><stop stop-opacity="1" stop-color="rgb(49.395752%, 15.12146%, 72.897339%)" offset="0.496094"/><stop stop-opacity="1" stop-color="rgb(49.649048%, 15.098572%, 72.749329%)" offset="0.5"/><stop stop-opacity="1" stop-color="rgb(49.900818%, 15.075684%, 72.599792%)" offset="0.503906"/><stop stop-opacity="1" stop-color="rgb(50.154114%, 15.054321%, 72.451782%)" offset="0.507812"/><stop stop-opacity="1" stop-color="rgb(50.40741%, 15.031433%, 72.302246%)" offset="0.511719"/><stop stop-opacity="1" stop-color="rgb(50.660706%, 15.008545%, 72.154236%)" offset="0.515625"/><stop stop-opacity="1" stop-color="rgb(50.912476%, 14.985657%, 72.0047%)" offset="0.519531"/><stop stop-opacity="1" stop-color="rgb(51.165771%, 14.962769%, 71.856689%)" offset="0.523438"/><stop stop-opacity="1" stop-color="rgb(51.417542%, 14.93988%, 71.707153%)" offset="0.527344"/><stop stop-opacity="1" stop-color="rgb(51.670837%, 14.918518%, 71.559143%)" offset="0.53125"/><stop stop-opacity="1" stop-color="rgb(51.922607%, 14.89563%, 71.409607%)" offset="0.535156"/><stop stop-opacity="1" stop-color="rgb(52.175903%, 14.872742%, 71.261597%)" offset="0.539062"/><stop stop-opacity="1" stop-color="rgb(52.429199%, 14.849854%, 71.112061%)" offset="0.542969"/><stop stop-opacity="1" stop-color="rgb(52.682495%, 14.826965%, 70.96405%)" offset="0.546875"/><stop stop-opacity="1" stop-color="rgb(52.934265%, 14.804077%, 70.814514%)" offset="0.550781"/><stop stop-opacity="1" stop-color="rgb(53.187561%, 14.782715%, 70.664978%)" offset="0.554688"/><stop stop-opacity="1" stop-color="rgb(53.439331%, 14.759827%, 70.515442%)" offset="0.558594"/><stop stop-opacity="1" stop-color="rgb(53.692627%, 14.736938%, 70.367432%)" offset="0.5625"/><stop stop-opacity="1" stop-color="rgb(53.945923%, 14.71405%, 70.217896%)" offset="0.566406"/><stop stop-opacity="1" stop-color="rgb(54.199219%, 14.691162%, 70.069885%)" offset="0.570312"/><stop stop-opacity="1" stop-color="rgb(54.450989%, 14.668274%, 69.920349%)" offset="0.574219"/><stop stop-opacity="1" stop-color="rgb(54.704285%, 14.645386%, 69.772339%)" offset="0.578125"/><stop stop-opacity="1" stop-color="rgb(54.956055%, 14.622498%, 69.622803%)" offset="0.582031"/><stop stop-opacity="1" stop-color="rgb(55.209351%, 14.601135%, 69.474792%)" offset="0.585938"/><stop stop-opacity="1" stop-color="rgb(55.461121%, 14.578247%, 69.325256%)" offset="0.589844"/><stop stop-opacity="1" stop-color="rgb(55.714417%, 14.555359%, 69.177246%)" offset="0.59375"/><stop stop-opacity="1" stop-color="rgb(55.967712%, 14.532471%, 69.02771%)" offset="0.597656"/><stop stop-opacity="1" stop-color="rgb(56.221008%, 14.509583%, 68.8797%)" offset="0.601562"/><stop stop-opacity="1" stop-color="rgb(56.472778%, 14.486694%, 68.730164%)" offset="0.605469"/><stop stop-opacity="1" stop-color="rgb(56.726074%, 14.465332%, 68.582153%)" offset="0.609375"/><stop stop-opacity="1" stop-color="rgb(56.977844%, 14.442444%, 68.432617%)" offset="0.613281"/><stop stop-opacity="1" stop-color="rgb(57.23114%, 14.419556%, 68.284607%)" offset="0.617188"/><stop stop-opacity="1" stop-color="rgb(57.48291%, 14.396667%, 68.135071%)" offset="0.621094"/><stop stop-opacity="1" stop-color="rgb(57.736206%, 14.373779%, 67.987061%)" offset="0.625"/><stop stop-opacity="1" stop-color="rgb(57.989502%, 14.350891%, 67.837524%)" offset="0.628906"/><stop stop-opacity="1" stop-color="rgb(58.242798%, 14.329529%, 67.689514%)" offset="0.632812"/><stop stop-opacity="1" stop-color="rgb(58.494568%, 14.306641%, 67.539978%)" offset="0.636719"/><stop stop-opacity="1" stop-color="rgb(58.747864%, 14.283752%, 67.391968%)" offset="0.640625"/><stop stop-opacity="1" stop-color="rgb(58.999634%, 14.260864%, 67.242432%)" offset="0.644531"/><stop stop-opacity="1" stop-color="rgb(59.25293%, 14.237976%, 67.094421%)" offset="0.648438"/><stop stop-opacity="1" stop-color="rgb(59.5047%, 14.215088%, 66.944885%)" offset="0.652344"/><stop stop-opacity="1" stop-color="rgb(59.757996%, 14.193726%, 66.795349%)" offset="0.65625"/><stop stop-opacity="1" stop-color="rgb(60.011292%, 14.170837%, 66.645813%)" offset="0.660156"/><stop stop-opacity="1" stop-color="rgb(60.264587%, 14.147949%, 66.497803%)" offset="0.664062"/><stop stop-opacity="1" stop-color="rgb(60.516357%, 14.125061%, 66.348267%)" offset="0.667969"/><stop stop-opacity="1" stop-color="rgb(60.769653%, 14.102173%, 66.200256%)" offset="0.671875"/><stop stop-opacity="1" stop-color="rgb(61.021423%, 14.079285%, 66.05072%)" offset="0.675781"/><stop stop-opacity="1" stop-color="rgb(61.274719%, 14.056396%, 65.90271%)" offset="0.679688"/><stop stop-opacity="1" stop-color="rgb(61.526489%, 14.033508%, 65.753174%)" offset="0.683594"/><stop stop-opacity="1" stop-color="rgb(61.779785%, 14.012146%, 65.605164%)" offset="0.6875"/><stop stop-opacity="1" stop-color="rgb(62.033081%, 13.989258%, 65.455627%)" offset="0.691406"/><stop stop-opacity="1" stop-color="rgb(62.286377%, 13.96637%, 65.307617%)" offset="0.695312"/><stop stop-opacity="1" stop-color="rgb(62.538147%, 13.943481%, 65.158081%)" offset="0.699219"/><stop stop-opacity="1" stop-color="rgb(62.791443%, 13.920593%, 65.010071%)" offset="0.703125"/><stop stop-opacity="1" stop-color="rgb(63.043213%, 13.897705%, 64.860535%)" offset="0.707031"/><stop stop-opacity="1" stop-color="rgb(63.296509%, 13.876343%, 64.712524%)" offset="0.710938"/><stop stop-opacity="1" stop-color="rgb(63.549805%, 13.853455%, 64.562988%)" offset="0.714844"/><stop stop-opacity="1" stop-color="rgb(63.803101%, 13.830566%, 64.414978%)" offset="0.71875"/><stop stop-opacity="1" stop-color="rgb(64.054871%, 13.807678%, 64.265442%)" offset="0.722656"/><stop stop-opacity="1" stop-color="rgb(64.308167%, 13.78479%, 64.117432%)" offset="0.726562"/><stop stop-opacity="1" stop-color="rgb(64.559937%, 13.761902%, 63.967896%)" offset="0.730469"/><stop stop-opacity="1" stop-color="rgb(64.813232%, 13.74054%, 63.819885%)" offset="0.734375"/><stop stop-opacity="1" stop-color="rgb(65.065002%, 13.717651%, 63.670349%)" offset="0.738281"/><stop stop-opacity="1" stop-color="rgb(65.318298%, 13.694763%, 63.522339%)" offset="0.742188"/><stop stop-opacity="1" stop-color="rgb(65.571594%, 13.671875%, 63.372803%)" offset="0.746094"/><stop stop-opacity="1" stop-color="rgb(65.82489%, 13.648987%, 63.224792%)" offset="0.75"/><stop stop-opacity="1" stop-color="rgb(66.07666%, 13.626099%, 63.075256%)" offset="0.753906"/><stop stop-opacity="1" stop-color="rgb(66.329956%, 13.60321%, 62.927246%)" offset="0.757812"/><stop stop-opacity="1" stop-color="rgb(66.581726%, 13.580322%, 62.77771%)" offset="0.761719"/><stop stop-opacity="1" stop-color="rgb(66.835022%, 13.55896%, 62.628174%)" offset="0.765625"/><stop stop-opacity="1" stop-color="rgb(67.086792%, 13.536072%, 62.478638%)" offset="0.769531"/><stop stop-opacity="1" stop-color="rgb(67.340088%, 13.513184%, 62.330627%)" offset="0.773438"/><stop stop-opacity="1" stop-color="rgb(67.593384%, 13.490295%, 62.181091%)" offset="0.777344"/><stop stop-opacity="1" stop-color="rgb(67.84668%, 13.467407%, 62.033081%)" offset="0.78125"/><stop stop-opacity="1" stop-color="rgb(68.09845%, 13.444519%, 61.883545%)" offset="0.785156"/><stop stop-opacity="1" stop-color="rgb(68.351746%, 13.423157%, 61.735535%)" offset="0.789062"/><stop stop-opacity="1" stop-color="rgb(68.603516%, 13.400269%, 61.585999%)" offset="0.792969"/><stop stop-opacity="1" stop-color="rgb(68.856812%, 13.37738%, 61.437988%)" offset="0.796875"/><stop stop-opacity="1" stop-color="rgb(69.108582%, 13.354492%, 61.288452%)" offset="0.800781"/><stop stop-opacity="1" stop-color="rgb(69.361877%, 13.331604%, 61.140442%)" offset="0.804688"/><stop stop-opacity="1" stop-color="rgb(69.615173%, 13.308716%, 60.990906%)" offset="0.808594"/><stop stop-opacity="1" stop-color="rgb(69.868469%, 13.287354%, 60.842896%)" offset="0.8125"/><stop stop-opacity="1" stop-color="rgb(70.120239%, 13.264465%, 60.693359%)" offset="0.816406"/><stop stop-opacity="1" stop-color="rgb(70.373535%, 13.241577%, 60.545349%)" offset="0.820312"/><stop stop-opacity="1" stop-color="rgb(70.625305%, 13.218689%, 60.395813%)" offset="0.824219"/><stop stop-opacity="1" stop-color="rgb(70.878601%, 13.195801%, 60.247803%)" offset="0.828125"/><stop stop-opacity="1" stop-color="rgb(71.130371%, 13.172913%, 60.098267%)" offset="0.832031"/><stop stop-opacity="1" stop-color="rgb(71.383667%, 13.15155%, 59.950256%)" offset="0.835938"/><stop stop-opacity="1" stop-color="rgb(71.636963%, 13.128662%, 59.80072%)" offset="0.839844"/><stop stop-opacity="1" stop-color="rgb(71.890259%, 13.105774%, 59.65271%)" offset="0.84375"/><stop stop-opacity="1" stop-color="rgb(72.142029%, 13.082886%, 59.503174%)" offset="0.847656"/><stop stop-opacity="1" stop-color="rgb(72.395325%, 13.059998%, 59.355164%)" offset="0.851562"/><stop stop-opacity="1" stop-color="rgb(72.647095%, 13.037109%, 59.205627%)" offset="0.855469"/><stop stop-opacity="1" stop-color="rgb(72.900391%, 13.014221%, 59.057617%)" offset="0.859375"/><stop stop-opacity="1" stop-color="rgb(73.153687%, 12.991333%, 58.908081%)" offset="0.863281"/><stop stop-opacity="1" stop-color="rgb(73.406982%, 12.969971%, 58.760071%)" offset="0.867188"/><stop stop-opacity="1" stop-color="rgb(73.658752%, 12.947083%, 58.610535%)" offset="0.871094"/><stop stop-opacity="1" stop-color="rgb(73.912048%, 12.924194%, 58.460999%)" offset="0.875"/><stop stop-opacity="1" stop-color="rgb(74.163818%, 12.901306%, 58.311462%)" offset="0.878906"/><stop stop-opacity="1" stop-color="rgb(74.417114%, 12.878418%, 58.163452%)" offset="0.882812"/><stop stop-opacity="1" stop-color="rgb(74.668884%, 12.85553%, 58.013916%)" offset="0.886719"/><stop stop-opacity="1" stop-color="rgb(74.92218%, 12.834167%, 57.865906%)" offset="0.890625"/><stop stop-opacity="1" stop-color="rgb(75.175476%, 12.811279%, 57.71637%)" offset="0.894531"/><stop stop-opacity="1" stop-color="rgb(75.428772%, 12.788391%, 57.568359%)" offset="0.898438"/><stop stop-opacity="1" stop-color="rgb(75.680542%, 12.765503%, 57.418823%)" offset="0.902344"/><stop stop-opacity="1" stop-color="rgb(75.933838%, 12.742615%, 57.270813%)" offset="0.90625"/><stop stop-opacity="1" stop-color="rgb(76.185608%, 12.719727%, 57.121277%)" offset="0.910156"/><stop stop-opacity="1" stop-color="rgb(76.438904%, 12.698364%, 56.973267%)" offset="0.914062"/><stop stop-opacity="1" stop-color="rgb(76.690674%, 12.675476%, 56.82373%)" offset="0.917969"/><stop stop-opacity="1" stop-color="rgb(76.94397%, 12.652588%, 56.67572%)" offset="0.921875"/><stop stop-opacity="1" stop-color="rgb(77.197266%, 12.6297%, 56.526184%)" offset="0.925781"/><stop stop-opacity="1" stop-color="rgb(77.450562%, 12.606812%, 56.378174%)" offset="0.929688"/><stop stop-opacity="1" stop-color="rgb(77.702332%, 12.583923%, 56.228638%)" offset="0.933594"/><stop stop-opacity="1" stop-color="rgb(77.955627%, 12.561035%, 56.080627%)" offset="0.9375"/><stop stop-opacity="1" stop-color="rgb(78.207397%, 12.538147%, 55.931091%)" offset="0.941406"/><stop stop-opacity="1" stop-color="rgb(78.460693%, 12.516785%, 55.783081%)" offset="0.945312"/><stop stop-opacity="1" stop-color="rgb(78.712463%, 12.493896%, 55.633545%)" offset="0.949219"/><stop stop-opacity="1" stop-color="rgb(78.965759%, 12.471008%, 55.485535%)" offset="0.953125"/><stop stop-opacity="1" stop-color="rgb(79.219055%, 12.44812%, 55.335999%)" offset="0.957031"/><stop stop-opacity="1" stop-color="rgb(79.472351%, 12.425232%, 55.187988%)" offset="0.960938"/><stop stop-opacity="1" stop-color="rgb(79.724121%, 12.402344%, 55.038452%)" offset="0.964844"/><stop stop-opacity="1" stop-color="rgb(79.977417%, 12.380981%, 54.890442%)" offset="0.96875"/><stop stop-opacity="1" stop-color="rgb(80.229187%, 12.358093%, 54.740906%)" offset="0.972656"/><stop stop-opacity="1" stop-color="rgb(80.482483%, 12.335205%, 54.592896%)" offset="0.976562"/><stop stop-opacity="1" stop-color="rgb(80.734253%, 12.312317%, 54.443359%)" offset="0.980469"/><stop stop-opacity="1" stop-color="rgb(80.987549%, 12.289429%, 54.293823%)" offset="0.984375"/><stop stop-opacity="1" stop-color="rgb(81.240845%, 12.266541%, 54.144287%)" offset="0.988281"/><stop stop-opacity="1" stop-color="rgb(81.494141%, 12.245178%, 53.996277%)" offset="0.992188"/><stop stop-opacity="1" stop-color="rgb(81.745911%, 12.22229%, 53.846741%)" offset="0.996094"/><stop stop-opacity="1" stop-color="rgb(81.999207%, 12.199402%, 53.69873%)" offset="1"/></linearGradient></defs><g clip-path="url(#88297ecb16)"><g clip-path="url(#42785240be)"><path fill="url(#a1b7ddcd1f)" d="M 7.585938 7.644531 L 7.585938 217.355469 L 217.292969 217.355469 L 217.292969 7.644531 Z M 7.585938 7.644531 " fill-rule="nonzero"/></g></g><g fill="#ffffff" fill-opacity="1"><g transform="translate(22.487998, 141.248701)"><g><path d="M 56.640625 -55.484375 C 58.023438 -55.484375 59.164062 -55.101562 60.0625 -54.34375 C 60.96875 -53.582031 61.4375 -52.851562 61.46875 -52.15625 C 61.507812 -51.46875 61.492188 -51.050781 61.421875 -50.90625 C 58.921875 -50.90625 56.457031 -50.800781 54.03125 -50.59375 C 54.164062 -48.03125 54.234375 -45.425781 54.234375 -42.78125 C 54.234375 -38.832031 54.039062 -34.460938 53.65625 -29.671875 C 53.28125 -24.878906 52.710938 -19.53125 51.953125 -13.625 C 51.191406 -7.726562 50.097656 -2.078125 48.671875 3.328125 C 47.242188 8.742188 45.554688 13.722656 43.609375 18.265625 C 41.671875 22.816406 39.226562 26.460938 36.28125 29.203125 C 33.332031 31.941406 30.085938 33.3125 26.546875 33.3125 C 23.835938 33.3125 21.21875 32.597656 18.6875 31.171875 C 16.15625 29.753906 13.8125 27.601562 11.65625 24.71875 C 9.507812 21.84375 7.789062 17.941406 6.5 13.015625 C 5.21875 8.085938 4.578125 2.460938 4.578125 -3.859375 C 4.578125 -11.628906 5.789062 -18.789062 8.21875 -25.34375 C 10.65625 -31.90625 14.546875 -37.703125 19.890625 -42.734375 C 25.234375 -47.765625 31.753906 -51.320312 39.453125 -53.40625 C 39.179688 -75.0625 37.722656 -85.890625 35.078125 -85.890625 C 33.421875 -85.890625 31.96875 -84.882812 30.71875 -82.875 C 29.46875 -80.863281 28.507812 -78.429688 27.84375 -75.578125 C 27.1875 -72.734375 26.648438 -69.890625 26.234375 -67.046875 C 25.816406 -64.203125 25.539062 -61.773438 25.40625 -59.765625 L 25.296875 -56.734375 C 25.222656 -56.734375 25.097656 -56.734375 24.921875 -56.734375 C 24.753906 -56.734375 24.460938 -56.734375 24.046875 -56.734375 C 23.628906 -56.734375 23.210938 -56.769531 22.796875 -56.84375 C 22.378906 -56.914062 21.945312 -57.070312 21.5 -57.3125 C 21.050781 -57.550781 20.648438 -57.863281 20.296875 -58.25 C 19.953125 -58.632812 19.65625 -59.15625 19.40625 -59.8125 C 19.164062 -60.46875 19.046875 -61.25 19.046875 -62.15625 C 19.046875 -62.988281 19.238281 -64.445312 19.625 -66.53125 C 20.007812 -68.613281 20.703125 -71.179688 21.703125 -74.234375 C 22.710938 -77.285156 23.945312 -80.179688 25.40625 -82.921875 C 26.863281 -85.660156 28.785156 -88.019531 31.171875 -90 C 33.566406 -91.976562 36.222656 -92.96875 39.140625 -92.96875 C 41.015625 -92.96875 42.75 -92.238281 44.34375 -90.78125 C 45.945312 -89.320312 47.269531 -87.429688 48.3125 -85.109375 C 49.351562 -82.785156 50.269531 -79.957031 51.0625 -76.625 C 51.863281 -73.289062 52.472656 -69.921875 52.890625 -66.515625 C 53.304688 -63.117188 53.617188 -59.441406 53.828125 -55.484375 C 54.867188 -55.484375 55.804688 -55.484375 56.640625 -55.484375 Z M 39.453125 -42.0625 C 39.453125 -44.207031 39.453125 -46.082031 39.453125 -47.6875 C 30.429688 -44.5625 23.539062 -39.335938 18.78125 -32.015625 C 14.03125 -24.691406 11.65625 -15.515625 11.65625 -4.484375 C 11.65625 6.835938 12.90625 15.34375 15.40625 21.03125 C 17.90625 26.71875 21.0625 29.5625 24.875 29.5625 C 34.664062 29.5625 39.523438 6.035156 39.453125 -41.015625 C 39.453125 -41.503906 39.453125 -41.851562 39.453125 -42.0625 Z M 39.453125 -42.0625 "/></g></g></g><g fill="#ffffff" fill-opacity="1"><g transform="translate(81.41297, 141.248701)"><g><path d="M 26.859375 -50.078125 C 31.992188 -50.078125 34.5625 -45.671875 34.5625 -36.859375 C 34.5625 -34.359375 34.320312 -31.894531 33.84375 -29.46875 C 33.21875 -25.988281 32.4375 -22.671875 31.5 -19.515625 C 30.5625 -16.359375 29.414062 -13.203125 28.0625 -10.046875 C 26.707031 -6.890625 25.054688 -4.375 23.109375 -2.5 C 21.171875 -0.625 19.09375 0.3125 16.875 0.3125 C 14.09375 0.3125 11.59375 -0.414062 9.375 -1.875 C 7.15625 -3.332031 5.398438 -5.222656 4.109375 -7.546875 C 2.828125 -9.867188 1.835938 -12.175781 1.140625 -14.46875 C 0.453125 -16.757812 -0.03125 -19.085938 -0.3125 -21.453125 C -1 -27.003906 -1.117188 -31.304688 -0.671875 -34.359375 C -0.222656 -37.410156 0.519531 -39.472656 1.5625 -40.546875 C 2.601562 -41.628906 4.128906 -42.171875 6.140625 -42.171875 C 7.253906 -42.171875 8.191406 -41.992188 8.953125 -41.640625 C 9.722656 -41.296875 10.210938 -40.953125 10.421875 -40.609375 L 10.734375 -39.984375 C 10.734375 -36.503906 10.816406 -32.941406 10.984375 -29.296875 C 11.160156 -25.660156 11.421875 -21.757812 11.765625 -17.59375 C 12.117188 -13.425781 12.707031 -10.023438 13.53125 -7.390625 C 14.363281 -4.753906 15.335938 -3.4375 16.453125 -3.4375 C 19.023438 -3.4375 21.347656 -6.785156 23.421875 -13.484375 C 25.503906 -20.179688 26.546875 -28.316406 26.546875 -37.890625 C 26.546875 -39.347656 26.351562 -40.679688 25.96875 -41.890625 C 25.59375 -43.109375 25.226562 -44.015625 24.875 -44.609375 C 24.53125 -45.203125 24.0625 -45.828125 23.46875 -46.484375 C 22.882812 -47.140625 22.59375 -47.46875 22.59375 -47.46875 C 22.457031 -47.613281 22.507812 -47.875 22.75 -48.25 C 23 -48.632812 23.484375 -49.035156 24.203125 -49.453125 C 24.929688 -49.867188 25.816406 -50.078125 26.859375 -50.078125 Z M 26.859375 -50.078125 "/></g></g></g><g fill="#ffffff" fill-opacity="1"><g transform="translate(120.453372, 141.248701)"><g><path d="M 69.03125 -38.734375 C 74.507812 -36.785156 77.25 -33.90625 77.25 -30.09375 C 77.25 -28.84375 77.144531 -27.726562 76.9375 -26.75 C 76.726562 -25.78125 76.46875 -25.035156 76.15625 -24.515625 C 75.84375 -23.992188 75.507812 -23.5625 75.15625 -23.21875 C 74.8125 -22.875 74.535156 -22.664062 74.328125 -22.59375 L 74.015625 -22.390625 C 73.117188 -23.773438 71.382812 -25.09375 68.8125 -26.34375 C 68.675781 -17.039062 68.609375 -9.546875 68.609375 -3.859375 L 68.921875 18.21875 C 68.367188 18.914062 67.015625 19.265625 64.859375 19.265625 C 63.742188 19.265625 62.40625 18.691406 60.84375 17.546875 C 59.289062 16.398438 58.515625 15.441406 58.515625 14.671875 C 57.054688 4.753906 56.046875 -9.921875 55.484375 -29.359375 C 54.648438 -29.429688 53.785156 -29.46875 52.890625 -29.46875 C 48.515625 -29.46875 43.515625 -28.769531 37.890625 -27.375 C 37.472656 -20.570312 36.726562 -14.253906 35.65625 -8.421875 C 34.582031 -2.597656 33.191406 2.6875 31.484375 7.4375 C 29.785156 12.195312 27.632812 15.945312 25.03125 18.6875 C 22.4375 21.425781 19.539062 22.796875 16.34375 22.796875 C 12.382812 22.796875 9.414062 20.9375 7.4375 17.21875 C 5.46875 13.507812 4.484375 8.429688 4.484375 1.984375 C 4.484375 -5.648438 6.164062 -12.539062 9.53125 -18.6875 C 12.894531 -24.832031 17.734375 -29.773438 24.046875 -33.515625 C 24.179688 -36.847656 24.25 -39.9375 24.25 -42.78125 C 24.25 -49.238281 24.144531 -56.300781 23.9375 -63.96875 C 23.726562 -71.644531 23.523438 -77.703125 23.328125 -82.140625 L 23.015625 -88.703125 C 23.078125 -88.835938 23.144531 -89.007812 23.21875 -89.21875 C 23.289062 -89.425781 23.550781 -89.753906 24 -90.203125 C 24.445312 -90.660156 25.015625 -91.078125 25.703125 -91.453125 C 26.398438 -91.835938 27.476562 -92.1875 28.9375 -92.5 C 30.394531 -92.8125 32.097656 -92.96875 34.046875 -92.96875 C 34.804688 -92.96875 35.515625 -90.726562 36.171875 -86.25 C 36.835938 -81.78125 37.359375 -75.484375 37.734375 -67.359375 C 38.117188 -59.234375 38.3125 -50.210938 38.3125 -40.296875 C 38.3125 -40.148438 38.3125 -39.800781 38.3125 -39.25 C 43.238281 -40.425781 48.515625 -41.015625 54.140625 -41.015625 C 54.484375 -41.015625 54.863281 -41.015625 55.28125 -41.015625 C 55.28125 -44.421875 55.28125 -47.859375 55.28125 -51.328125 C 55.28125 -59.648438 55.3125 -66.882812 55.375 -73.03125 C 55.445312 -79.175781 55.535156 -83.617188 55.640625 -86.359375 C 55.742188 -89.097656 55.796875 -90.46875 55.796875 -90.46875 C 55.796875 -91.019531 56.195312 -91.488281 57 -91.875 C 57.800781 -92.257812 58.703125 -92.535156 59.703125 -92.703125 C 60.710938 -92.878906 61.703125 -92.96875 62.671875 -92.96875 C 63.578125 -92.96875 64.394531 -92.878906 65.125 -92.703125 C 65.851562 -92.535156 66.457031 -92.328125 66.9375 -92.078125 C 67.425781 -91.835938 67.859375 -91.5625 68.234375 -91.25 C 68.617188 -90.9375 68.929688 -90.625 69.171875 -90.3125 C 69.421875 -90 69.613281 -89.722656 69.75 -89.484375 C 69.894531 -89.242188 69.96875 -89.019531 69.96875 -88.8125 L 70.0625 -88.59375 C 70.0625 -87.625 70.007812 -84.726562 69.90625 -79.90625 C 69.800781 -75.082031 69.660156 -68.609375 69.484375 -60.484375 C 69.316406 -52.367188 69.164062 -45.117188 69.03125 -38.734375 Z M 14.0625 18.953125 C 16.207031 18.953125 18.09375 14.957031 19.71875 6.96875 C 21.351562 -1.007812 22.585938 -10.585938 23.421875 -21.765625 C 13.640625 -16.066406 8.75 -7.976562 8.75 2.5 C 8.75 5.269531 8.90625 7.710938 9.21875 9.828125 C 9.53125 11.953125 9.875 13.566406 10.25 14.671875 C 10.632812 15.785156 11.085938 16.6875 11.609375 17.375 C 12.128906 18.070312 12.578125 18.507812 12.953125 18.6875 C 13.335938 18.863281 13.707031 18.953125 14.0625 18.953125 Z M 14.0625 18.953125 "/></g></g></g></svg>